<?xml version="1.0" encoding="UTF-8"?>
<svg xmlns="http://www.w3.org/2000/svg" version="1.1" viewBox="0 0 1920 1080">
  <defs>
    <style>
      .cls-1 {
        fill: #ebebeb;
      }
    </style>
  </defs>
  <!-- Generator: Adobe Illustrator 28.6.0, SVG Export Plug-In . SVG Version: 1.2.0 Build 709)  -->
  <g>
    <g id="Layer_1">
      <path class="cls-1" d="M1389.05,543.28v74.16h-29.53v-36.27c-13.29,23.88-41.37,39.55-73.83,39.55-51.85,0-97.79-40.36-97.79-105.66s43.64-106.32,103.7-106.32c41.02,0,78.1,20.35,92.54,70.22h-32.81c-10.83-32.49-36.75-42-60.05-42-42,0-72.19,29.86-72.19,78.1s31.5,77.44,69.57,77.44c29.5,0,58.48-16.82,64.95-49.55h-56.74v-26.25h64.65c18.38,0,27.56,8.53,27.56,26.58ZM1082.25,594.47c25.6,0,50.36-19.03,50.36-55.46,0-33.47-21.16-56.44-50.36-56.44-26.58,0-50.38,21-50.38,55.46s24.46,56.44,50.38,56.44M1163.62,538.03c0,47.58-34.46,82.69-81.71,82.69s-80.72-35.11-80.72-82.69,34.13-81.71,81.05-81.71,81.38,34.13,81.38,81.71M511.58,543.28v74.16h-29.53v-36.27c-13.29,23.88-41.37,39.55-73.83,39.55-51.85,0-97.79-40.36-97.79-105.66s43.64-106.32,103.7-106.32c41.02,0,78.1,20.35,92.54,70.22h-32.81c-10.83-32.49-36.75-42-60.05-42-42,0-72.19,29.86-72.19,78.1s31.5,77.44,69.57,77.44c29.5,0,58.48-16.82,64.95-49.55h-56.74v-26.25h64.65c18.38,0,27.56,8.53,27.56,26.58M1516.05,620.72c37.74,0,78.76-16.08,93.52-69.57h-32.16c-11.81,32.16-37.74,41.35-62.02,41.35-40.69,0-72.85-27.56-72.85-77.12s29.86-78.43,73.18-78.43c21.66,0,48.57,7.55,61.69,42h32.16c-15.42-52.5-55.79-70.22-94.18-70.22-60.38,0-104.02,42.66-104.02,106.65s46.6,105.34,104.68,105.34M627.42,458.62h-1.31c-17.39,0-34.78,5.25-49.55,15.75-1.97,1.31-4.59.98-4.59-2.3v-13.45h-30.19v158.82h30.19v-126.01h55.46v-32.81ZM982.15,537.7c0,52.83-38.72,83.02-76.79,83.02-24.95,0-44.05-12.09-54.14-27.75v78.28h-30.19v-212.64h30.19v20.67c0,3.61,3.61,3.61,5.25,1.31,10.5-14.77,28.88-24.28,49.88-24.28,36.75,0,75.8,28.55,75.8,81.38M901.43,594.47c25.6,0,49.88-19.03,49.88-55.46,0-33.47-20.35-56.44-49.55-56.44-27.24,0-51.19,21-51.19,55.46s24.28,56.44,50.86,56.44M759.66,458.62v90.9c0,25.6-17.39,42.99-42.99,42.99-21.66,0-36.1-12.8-36.1-39.71v-94.18h-30.19v97.79c0,38.72,23.63,64.32,59.07,64.32,20.67,0,34.11-8.87,45.65-22.93,1.63-1.98,4.56-1.36,4.56,1.6v18.05h30.19v-158.82h-30.19Z"/>
    </g>
  </g>
</svg>